<svg version="1" xmlns="http://www.w3.org/2000/svg" width="394.667" height="394.667" viewBox="0 0 296.000000 296.000000"><path d="M111.5 18C104.1 27.9 98 36.3 98 36.8c0 .9 34.9 16.2 36.9 16.2.9 0 22.1-34.3 22.1-35.8C157 16.1 128.5 0 126.7 0c-1 0-7.3 7.5-15.2 18zM159.2 20.2C157.8 22.1 138 53 138 53.5c0 .2 5.5 3.4 12.3 7.1 6.7 3.7 12.4 6.9 12.6 7.1.3.2-.3 4.4-1.3 9.4-.9 5-1.5 9.4-1.2 9.7.3.3 3.7-1.6 7.5-4.1 6.3-4.2 7.9-6.1 19.1-22.2 7.1-10.3 11.9-18 11.3-18.6C196.9 40.5 161.9 19 161 19c-.4 0-1.2.6-1.8 1.2z"/><path d="M82.4 48.9c-4.4 6.4-8.1 12-8.3 12.6-.2.5-1.7 2.6-3.2 4.6-1.6 2-2.9 4-2.9 4.3 0 .4-.5 1.2-1.1 1.9-.6.7-6.4 9.1-12.9 18.7s-12.4 18.1-13 18.8c-1 1.1-.1 3.1 4.6 10 3.2 4.8 6.1 8.9 6.4 9.2.3.3 2.1 2.7 4 5.5 1.9 2.7 3.8 5.1 4.2 5.3.4.2.8.9.8 1.6 0 .6 1.3 2.7 3 4.6 1.6 1.9 2.9 4 3 4.7 0 .7.6 1.6 1.3 2 .6.4 1.7 1.6 2.2 2.5 1.5 2.6 14.9 22.2 15.6 22.8.3.3 3.9 5.4 8 11.5 4.1 6 7.6 11.2 7.9 11.5 2 1.8 4.9 7 4.6 8.2-.4 1.2-1 5.6-2.2 16.8-.2 1.9-.6 5.3-.9 7.5-.3 2.2-.7 5.6-.9 7.5-.2 1.9-.6 4.8-.9 6.5-.3 1.6-.8 5.7-1.2 9-.3 3.3-.8 6.7-1 7.5-.3 1.3-1 7-2 16-.3 2.6-1.6 12.8-1.8 14.5-.1.7 18.4 1.1 53.6 1.3l53.7.2.1-6.2c.1-6.9.3-13.8 1.4-41.8.4-10.2.8-21.8 1-25.8.1-7.3.2-7.4 5.8-14.6 3.1-3.9 7-8.7 8.6-10.6 4.1-4.7 4.6-5.3 5.4-6.6.8-1.3 4.9-20 7.2-32.9.8-3.9 1.6-8.1 3-14 .7-3.3 1.6-7.7 1.9-9.9.4-2.1.9-4.2 1.2-4.7.8-1.3-.5-1.1-2.1.3-.7.7-4.1 3.8-7.5 6.8-3.4 3-7.2 6.4-8.4 7.5-8 7.2-14.9 13-15.6 13-.4 0-6.3-5.3-13-11.8-6.7-6.4-12.9-11.7-13.7-11.7-.9 0-3-.4-4.7-1-4.5-1.4-37.8-8.1-38.2-7.7-.2.2 1 1.8 2.6 3.6 1.7 1.8 3 3.6 3 4.1 0 .4.4 1 .8 1.2.5.1 3.7 3.9 7.3 8.3 3.5 4.4 6.9 8.4 7.5 9 2.6 2.3 6.2 8.4 8.2 13.5 1.1 3 3.9 10.4 6.2 16.5 2.2 6 4.6 12.2 5.2 13.8.6 1.5 2.6 4.4 4.4 6.4 1.9 2 3.4 4 3.4 4.3 0 .3-2.5 1.8-5.5 3.4-4.9 2.4-5.5 3.1-5.5 5.9-.1 2.7 0 18.8.2 44.5.1 8.5-.8 8.8-1.7.5-.4-3.7-.9-7.7-1.1-8.8-.2-1.1-.6-4-.9-6.5-.3-2.5-.8-6.1-1.2-8-.6-3.9-.8-5.1-1.8-13-.3-3-.9-6.9-1.1-8.5-.3-1.7-.7-4.5-.9-6.3-.1-1.8-.5-3.5-.7-3.7-.6-.6-6.3-1.5-10.7-1.7-2.3-.1-4.1-.4-4.1-.7 0-.3 4.6-3.5 10.1-7 6.7-4.3 9.7-6.7 9.1-7.5-.5-.6-2.4-3.6-4.4-6.6-1.9-3-8.4-12.9-14.4-22s-11.1-17-11.4-17.5c-.3-.6-3.8-6.1-7.9-12.3-5.3-8-8.2-11.6-10.5-12.6-1.7-.8-8-3.3-14.1-5.6-6-2.4-11.5-4.7-12.1-5.2-.6-.4-1.4-.5-1.7-.1-.4.3-.7.1-.7-.5s1.5-1.6 3.4-2.2c2.5-.8 4.5-2.7 7.2-6.7 3.7-5.6 3.8-6 2-14.1-.6-2.7 0-2.4 6 3.3 13.4 12.7 12.1 11.8 16.2 10.9 2-.4 4.6-.9 5.7-1.1 1.1-.2 3.8-.8 6-1.4 2.2-.6 4.7-1.2 5.6-1.4.8-.2 3.9-1 6.7-1.9 2.9-.8 5.2-1.2 5.3-.8.1 1.4 2-4.3 2.5-7.7.3-2 1-5.4 1.5-7.6.4-2.2.9-4.3.9-4.6 0-.6-16.3-8.9-17.5-8.9-.2 0-4.3-1.8-9.2-4.1-4.8-2.2-9.7-4.4-10.8-4.9-1.1-.5-8.8-4-17.1-7.8l-15.2-6.9-7.8 11.6zM174 268c0 .5-.2 1-.4 1-.3 0-.8-.5-1.1-1-.3-.6-.1-1 .4-1 .6 0 1.1.4 1.1 1z"/><path d="M173.7 83.5c-11.9 17.9-21.7 32.9-21.7 33.4 0 .8 10 5.9 24.3 12.4 6.6 2.9 6.8 3 8.1 1.1.8-1 11.3-14 23.5-28.9C220.1 86.7 230 74.3 230 74c-.1-.6-32.1-22.4-33.5-22.8-.6-.1-10.9 14.4-22.8 32.3zM208.7 104.6L185 133.2l1.5 2.7c.8 1.6 5.3 6.3 9.9 10.6l8.6 7.7 13.2-11.8c7.2-6.6 18.6-16.8 25.2-22.7 7.4-6.6 12.1-11.5 12.1-12.7 0-1.7-21.2-30.8-22.5-30.9-.3-.1-11.2 12.8-24.3 28.5zM150.6 97.7c-.3.4-1.2.8-1.9.9-.7.1-3.7.9-6.7 1.8s-5.9 1.7-6.5 1.7c-.5.1-2 .5-3.3 1-1.2.5-3.3 1.1-4.5 1.3-3.7.7-7.5 2.5-5.4 2.5.9.1 1.7.5 1.7 1s.8 1.1 1.8 1.5c1.7.6 4.6 2.2 11.5 6.5 3.6 2.2 3.9 2.3 5.7.6 1.1-1 2-2.2 2-2.6 0-.5 2-4.2 4.5-8.2 2.5-4.1 4.5-7.7 4.5-8.1 0-.8-2.5-.8-3.4.1z"/></svg>